PathFileType	4	(X/Y/Z)	Patient4_TMGait_0pt8_01_right_17.trc.trc
DataRate	CameraRate	NumFrames	NumMarkers	Units	OrigDataRate	OrigDataStartFrame	OrigNumFrames
88.050314465409	88.050314465409	4	33	mm	88.050314465409	71	       141
Frame#	Time	Sacral			L.Shoulder			Chest			R.Shoulder			Neck			R.ASIS			L.ASIS			R.Thigh.Superior			R.Thigh.Lateral			R.Thigh.Inferior			R.Patella			L.Thigh.Superior			L.Thigh.Lateral			L.Thigh.Inferior			L.Patella			L.Shank.Superior			L.Shank.Lateral			L.Shank.Inferior			R.Shank.Superior			R.Shank.Lateral			R.Shank.Inferior			R.Heel			R.Midfoot.Superior			R.Midfoot.Lateral			R.Toe			L.Heel			L.Midfoot.Lateral			L.Midfoot.Superior			L.Toe			L.Elbow			L.Wrist			R.Elbow			R.Wrist			
		X1	Y1	Z1	X2	Y2	Z2	X3	Y3	Z3	X4	Y4	Z4	X5	Y5	Z5	X6	Y6	Z6	X7	Y7	Z7	X8	Y8	Z8	X9	Y9	Z9	X10	Y10	Z10	X11	Y11	Z11	X12	Y12	Z12	X13	Y13	Z13	X14	Y14	Z14	X15	Y15	Z15	X16	Y16	Z16	X17	Y17	Z17	X18	Y18	Z18	X19	Y19	Z19	X20	Y20	Z20	X21	Y21	Z21	X22	Y22	Z22	X23	Y23	Z23	X24	Y24	Z24	X25	Y25	Z25	X26	Y26	Z26	X27	Y27	Z27	X28	Y28	Z28	X29	Y29	Z29	X30	Y30	Z30	X31	Y31	Z31	X32	Y32	Z32	X33	Y33	Z33	

71	19.645000000000	911.419803872096	998.472035247986	483.667385523506	1065.455911485607	1412.837749843256	274.202813087354	1190.552115732786	1346.642229928971	420.928278889717	1134.159721734876	1429.775869264147	600.515084243892	1069.635862835573	1477.135226133019	429.664207229269	1142.400452558544	921.950218663982	580.822453099880	1108.679498075967	942.205701029974	307.756957712645	1123.501019441023	706.353467185245	553.051790998910	1010.296558117732	620.095979870013	613.444073409109	1062.933535462209	551.374391903261	531.471912034531	1035.481083249016	467.711048640893	533.784474128241	1189.307145266639	768.306807120545	347.642130034544	1151.704536310408	638.600520529280	263.850332526699	1254.530922961911	584.989572677120	330.842846474934	1285.815227601133	522.481204357586	326.351671335672	1273.122230600412	448.498472992758	315.820032972930	1215.351779404725	313.957754300210	267.115134210254	1308.370889368155	221.369255627097	323.906137196079	990.267298691395	387.242518075503	539.359325137125	899.397838988863	298.678019292515	599.011884833255	919.937117381738	199.091148157246	533.083994826026	760.607073655766	48.261076120715	495.621655490429	931.505527463564	96.399094523207	539.570982233939	839.536407226949	38.776255237644	574.073514967876	1047.861834166577	38.777822140515	575.438460286588	1235.818865032015	41.148771679399	365.278141840825	1311.437489375623	45.382157602544	286.866520456617	1378.779831168141	125.478250587996	306.911879446269	1514.086854334210	98.800347790166	285.295159028111	904.266644305394	1096.796366991933	203.770951116023	837.701170317665	847.238194740039	216.327618360727	1322.319642466037	1161.130736887189	712.701893413906	1472.446129411436	1333.869890476149	622.132096892962	
72	19.656357142857	912.390907709993	996.764911411140	481.183266103716	1066.043773043299	1411.179182489329	272.769534792568	1191.099859221501	1345.195357198786	419.607520979320	1134.096150447292	1427.974262406480	599.156722505315	1069.925741425094	1475.331729523403	428.270488525450	1143.420364660068	919.835923884862	579.330816093036	1110.582777358176	940.180135378296	306.171778354927	1123.158271765562	704.189247967315	551.771037446854	1009.024483211259	618.844754125729	612.125967571932	1061.294637522484	549.421119917225	530.439240466260	1032.826655432801	465.455097514428	532.680928306462	1191.264203312187	765.965244372604	346.111834171426	1151.563974632870	635.667496933696	263.948241871093	1255.118531831284	582.429716082277	329.777607460242	1285.262966561297	519.078894863302	326.054646024916	1272.263360516015	444.950904798957	315.962942673036	1212.844366396892	310.682617474919	269.090609556456	1305.542133759519	217.823941327410	325.685609776075	986.242726459870	385.672894031024	538.513413914146	894.030640688846	298.725152683179	598.758492135865	912.714828843635	198.692610184220	533.043057521280	751.472155937171	49.308039684973	496.073178070279	922.669497326066	96.479056784844	539.836888558056	830.485046350349	39.057531259680	574.371439603397	1038.801079376806	38.625685111840	575.509276011228	1230.760826342355	40.113403428853	368.459719197100	1305.507785063882	43.232200331686	289.116981353288	1374.946859437358	121.070674308871	309.139148780409	1509.265580541253	91.071729419301	285.720349996842	903.461878202056	1096.309007145777	203.072164803459	831.532751689496	848.476457366814	215.565477049802	1325.021426849844	1161.489891835528	710.261948313781	1468.584121438111	1339.322752921619	620.033826930366	
73	19.667714285714	913.551966742872	995.151155333024	478.568891704012	1066.747289433204	1409.626292199149	271.196636544940	1191.709247779093	1343.942206285515	418.223825187908	1133.992033345126	1426.300592988445	597.773243192955	1070.238122855705	1473.733813539800	426.659353244191	1144.564050659485	917.866665814788	577.736352044403	1112.631385529641	938.404106488250	304.491850459458	1123.184479160940	702.181880922739	550.422685260828	1008.180156730192	617.656832205740	610.651517654358	1060.262985579693	547.514898217297	529.361559339305	1030.829174868982	463.104369432761	531.555264051068	1193.431017566198	763.869736532139	344.298425158499	1151.509239172774	632.999547162908	263.976771657604	1255.946801995272	580.156364016922	328.576735119590	1284.800711475338	515.800446014012	325.793154055796	1271.371165401455	441.483391935372	316.116201712296	1210.036473556652	307.698176402234	270.739271013799	1301.869411256733	214.217575617767	327.376014803056	982.706643098751	384.129090955218	537.629140328497	889.026777698223	298.979799484996	598.437171229786	905.758760009982	198.468461098528	533.018040607701	742.395976332678	50.782729541072	496.595850182425	913.994857074091	96.603888007095	540.158296937616	821.481237262165	39.516880217687	574.704581963926	1029.781838402577	38.486588001241	575.574953645186	1223.937521890858	39.303645160775	371.148528893536	1297.973647607206	41.221949533856	291.004683579705	1369.776234229396	116.458677033006	311.378778207098	1503.050123326690	82.652887500289	286.331985131985	903.674918362108	1095.357570099787	201.997965153976	827.066116122198	849.160601318615	214.435548209262	1326.713997934448	1161.070349205357	708.000056504706	1464.564537357500	1343.107198848928	618.210467462281	
74	19.679071428571	914.898993352561	993.695470807379	475.877400685573	1067.587751644162	1408.259426377772	269.499061215393	1192.395953322900	1342.934055427036	416.785256268808	1133.897459000858	1424.827101694492	596.373145946111	1070.607677857445	1472.412744342881	424.863982991710	1145.797826660812	916.116059968878	576.023501205648	1114.758376273852	936.978300223086	302.713286100940	1123.568056700901	700.403287982361	548.992053953766	1007.796719943806	616.565663273799	609.020462908255	1059.893503424409	545.709189976487	528.233855665886	1029.584918020289	460.681040991742	530.450905856853	1195.706222913109	762.113923534950	342.241091430525	1151.591468525551	630.764902829372	263.812678372984	1256.944661099325	578.266668477661	327.246622229771	1284.417691381935	512.840946923450	325.521697496645	1270.502668837956	438.297991542044	316.205856534971	1207.185552269525	305.159894431460	271.864999456294	1297.634829120584	210.791756167752	328.856188449513	979.725606913892	382.652524350831	536.738315796273	884.440297274323	299.506028273425	598.046334703160	899.139608489179	198.475373555085	533.022555217268	733.425044940930	52.807068438954	497.182358976948	905.538326136687	96.783013000494	540.547593511489	812.545001121098	40.225798897830	575.065852354864	1020.798110854660	38.363018234263	575.632138407096	1215.879743936242	38.742976031340	373.223539252638	1289.406745083520	39.472345429445	292.457360800895	1363.621737357116	111.987960534107	313.494470950057	1495.869457829482	74.242028845493	287.113707422438	904.838892068961	1094.043700893903	200.542053261772	824.388003680697	849.288302064071	212.920327318458	1327.353469676736	1159.828206927765	705.957275695631	1460.478141200709	1345.222830010853	616.658341445446	
